<svg width="124" height="32" viewBox="0 0 124 32" fill="none" xmlns="http://www.w3.org/2000/svg">
<path d="M21.088 8.44C21.1093 8.52533 21.12 8.632 21.12 8.76C21.12 9.03733 20.992 9.24 20.736 9.368C20.608 9.41067 20.352 9.496 19.968 9.624C19.6053 9.73067 19.3067 9.784 19.072 9.784C18.88 9.784 18.7307 9.76267 18.624 9.72C18.4107 9.528 18.1547 9.38933 17.856 9.304C17.5573 9.21867 16.9387 9.144 16 9.08C15.7227 9.12267 15.4773 9.144 15.264 9.144C15.0507 9.144 14.88 9.15467 14.752 9.176C14.5813 9.73067 14.368 10.2533 14.112 10.744C14.0267 11.1493 13.9093 11.512 13.76 11.832C13.6107 12.2587 13.5467 12.504 13.568 12.568C13.504 12.6533 13.3013 13.1973 12.96 14.2C12.6187 15.1813 12.2987 16.1413 12 17.08C11.7867 17.7413 11.6267 18.2213 11.52 18.52C11.4133 18.7333 11.2747 19.0747 11.104 19.544C10.9547 19.992 10.848 20.312 10.784 20.504L9.984 22.712C9.81333 23.032 9.6 23.544 9.344 24.248C9.10933 24.9307 8.91733 25.5493 8.768 26.104C8.53333 26.936 8.32 27.5333 8.128 27.896C7.95733 28.2587 7.808 28.4827 7.68 28.568C7.552 28.6533 7.37067 28.696 7.136 28.696C6.79467 28.696 6.496 28.5253 6.24 28.184C5.984 27.8427 5.856 27.5227 5.856 27.224C5.856 26.7547 6.016 25.9653 6.336 24.856C6.67733 23.7467 6.99733 22.8613 7.296 22.2C7.38133 21.816 7.456 21.5067 7.52 21.272C7.60533 21.0373 7.65867 20.8667 7.68 20.76C7.744 20.6747 7.84 20.4507 7.968 20.088C8.11733 19.704 8.23467 19.352 8.32 19.032C8.384 18.648 9.04533 16.504 10.304 12.6L10.528 11.928C10.72 11.608 10.9013 11.2027 11.072 10.712C11.2427 10.6053 11.328 10.3813 11.328 10.04C11.328 9.976 11.36 9.89067 11.424 9.784C11.5093 9.67733 11.552 9.60267 11.552 9.56C11.5733 9.53867 11.6053 9.528 11.648 9.528C11.6693 9.528 11.6907 9.53867 11.712 9.56C11.7547 9.56 11.8187 9.51733 11.904 9.432H11.872L10.304 9.592L9.6 9.656C8.34133 9.76267 7.62667 9.83733 7.456 9.88L7.008 9.912C6.34667 9.912 5.87733 9.784 5.6 9.528C5.344 9.25067 5.25867 8.94133 5.344 8.6C5.408 8.32267 5.568 8.09867 5.824 7.928C6.10133 7.75733 6.54933 7.608 7.168 7.48C7.36 7.43733 7.73333 7.37333 8.288 7.288L9.152 7.128L10.24 7C11.4773 6.808 12.7893 6.68 14.176 6.616C14.752 6.59467 15.232 6.57333 15.616 6.552C16.0213 6.50933 16.288 6.47733 16.416 6.456C16.7147 6.47733 17.1947 6.53067 17.856 6.616C18.5387 6.70133 19.0293 6.79733 19.328 6.904C19.7973 7.01067 20.1813 7.20267 20.48 7.48C20.7787 7.75733 20.9813 8.07733 21.088 8.44ZM18.6973 25.784C18.3133 25.72 17.9613 25.5067 17.6413 25.144C17.3213 24.7813 17.1613 24.3653 17.1613 23.896C17.1613 23.384 17.4813 22.072 18.1213 19.96C18.2279 19.4053 18.4626 18.6907 18.8253 17.816C18.9533 17.4533 19.0279 17.24 19.0493 17.176C19.4333 15.896 19.9559 14.328 20.6173 12.472L20.9053 11.704C21.6519 9.67733 22.0999 8.44 22.2493 7.992L22.7613 6.584C22.7613 6.41333 22.8786 6.25333 23.1133 6.104C23.3693 5.93333 23.5826 5.848 23.7533 5.848C24.0946 5.848 24.4253 6.072 24.7453 6.52C25.0653 6.968 25.2359 7.43733 25.2573 7.928C25.2573 8.184 25.2039 8.41867 25.0973 8.632C24.6066 9.69867 23.9986 11.352 23.2733 13.592C22.9533 14.5307 22.6333 15.4267 22.3133 16.28C21.9933 17.112 21.7373 17.7093 21.5453 18.072L21.1933 18.776L20.7453 20.472C20.7453 20.536 20.7346 20.5893 20.7133 20.632C20.6919 20.6747 20.6813 20.7067 20.6813 20.728C20.6813 20.792 20.6919 20.824 20.7133 20.824L21.2573 20.28C21.8759 19.6613 22.6119 19.032 23.4653 18.392C24.1693 17.9013 24.5319 17.624 24.5533 17.56C24.5746 17.496 24.6599 17.4 24.8093 17.272L25.1293 17.016C25.8119 16.5253 26.5479 16.28 27.3373 16.28C27.5719 16.28 27.8493 16.3973 28.1693 16.632C28.4893 16.8667 28.7559 17.1973 28.9693 17.624C29.2039 18.0293 29.3213 18.4667 29.3213 18.936V19.192V19.416C29.3213 19.9493 29.2146 20.6533 29.0013 21.528C28.8093 22.3813 28.7026 22.872 28.6813 23C28.7879 23 28.9479 22.9787 29.1613 22.936C29.4813 22.936 29.7053 22.968 29.8333 23.032C29.9826 23.096 30.1106 23.1813 30.2173 23.288C30.3239 23.3947 30.4199 23.4587 30.5053 23.48C30.5479 23.5227 30.5693 23.5867 30.5693 23.672C30.5693 24.1627 30.3026 24.5893 29.7693 24.952C29.2359 25.3147 28.7239 25.5173 28.2333 25.56C27.6359 25.56 27.1559 25.336 26.7933 24.888C26.4306 24.44 26.2493 23.896 26.2493 23.256C26.2493 23 26.2599 22.744 26.2813 22.488C26.3026 22.232 26.3239 22.008 26.3453 21.816C26.4093 21.3893 26.4413 21.048 26.4413 20.792C26.4413 20.5147 26.4093 20.3333 26.3453 20.248C26.3026 20.1413 26.2173 20.088 26.0893 20.088C25.6626 20.088 24.9159 20.4827 23.8493 21.272C22.8039 22.04 21.7373 23.0427 20.6493 24.28C19.9666 25.2827 19.3159 25.784 18.6973 25.784ZM35.5423 27C34.3263 27 33.3449 26.6587 32.5983 25.976C31.8516 25.2933 31.4783 24.3227 31.4783 23.064C31.4783 22.5733 31.5103 22.0293 31.5743 21.432C31.6169 20.92 31.8196 20.216 32.1823 19.32C32.5663 18.424 33.0783 17.5493 33.7183 16.696C34.3796 15.8427 35.1476 15.2133 36.0223 14.808C36.4276 14.616 36.7689 14.488 37.0463 14.424C37.3236 14.3387 37.6436 14.296 38.0063 14.296C38.8809 14.296 39.5849 14.456 40.1183 14.776C40.6729 15.096 41.0569 15.4587 41.2703 15.864C41.5049 16.2693 41.6223 16.6213 41.6223 16.92V17.08V17.176C41.6223 17.432 41.4729 17.9013 41.1743 18.584C40.8756 19.2667 40.3956 19.9067 39.7343 20.504C39.0943 21.1013 38.2623 21.432 37.2383 21.496C36.7263 21.496 36.2249 21.4533 35.7343 21.368C35.2649 21.2613 34.9663 21.208 34.8383 21.208C34.5183 21.208 34.3156 21.3253 34.2303 21.56C34.1449 21.7947 34.1023 22.1893 34.1023 22.744C34.1663 23.3413 34.3263 23.7573 34.5823 23.992C34.8596 24.2267 35.2543 24.344 35.7663 24.344C36.0223 24.344 36.3209 24.2693 36.6623 24.12C37.0036 23.9493 37.4089 23.6827 37.8783 23.32C38.1343 23.1067 38.3369 22.9573 38.4863 22.872C38.6356 22.7867 38.8169 22.744 39.0303 22.744C39.2223 22.744 39.4463 22.872 39.7023 23.128C39.9583 23.384 40.0969 23.6293 40.1183 23.864C40.0756 24.12 39.8409 24.504 39.4143 25.016C38.9876 25.528 38.4329 25.9867 37.7503 26.392C37.0676 26.7973 36.3316 27 35.5423 27ZM36.6623 19.288C37.0676 19.288 37.3449 19.2453 37.4943 19.16C37.7076 19.0533 38.0276 18.7867 38.4543 18.36C38.9023 17.912 39.1369 17.6027 39.1583 17.432C39.1583 17.2187 39.0623 17.048 38.8703 16.92C38.6996 16.7707 38.4543 16.6747 38.1343 16.632H37.7823C37.5049 16.632 37.0996 16.8667 36.5663 17.336C36.0543 17.784 35.6063 18.3067 35.2223 18.904C35.2436 19.0107 35.4036 19.1067 35.7023 19.192C36.0009 19.256 36.3209 19.288 36.6623 19.288ZM49.9958 27.8C49.7824 27.8 49.4624 27.6933 49.0358 27.48C48.6091 27.2667 48.3958 27.0427 48.3958 26.808C48.3958 26.7653 48.3851 26.68 48.3638 26.552C48.3424 26.424 48.2998 26.296 48.2358 26.168C48.2358 25.6347 48.2891 25.208 48.3958 24.888C48.3958 24.6533 48.4278 24.3973 48.4918 24.12C48.5558 23.8427 48.6304 23.6187 48.7158 23.448C48.7158 23.2773 48.7584 23.0533 48.8438 22.776C48.9291 22.4773 48.9824 22.2747 49.0038 22.168L49.1958 21.496L49.7398 19.864C49.8464 19.608 49.9211 19.3947 49.9638 19.224C50.0064 19.0533 50.0278 18.8933 50.0278 18.744C50.1558 18.3173 50.3158 17.7733 50.5078 17.112C50.6998 16.4507 50.8598 15.8747 50.9878 15.384C51.0944 15.2773 51.1478 15.1173 51.1478 14.904C51.1904 14.776 51.2864 14.4773 51.4358 14.008C51.5851 13.5173 51.7558 13.0053 51.9478 12.472C52.2678 11.5333 52.5131 10.7653 52.6838 10.168C52.8544 9.57067 52.9398 9.15467 52.9398 8.92C52.9398 8.77067 52.9078 8.64267 52.8438 8.536C52.8011 8.408 52.7691 8.32267 52.7478 8.28C52.6624 8.06667 52.6198 7.93867 52.6198 7.896C52.6198 7.81067 52.6624 7.72533 52.7478 7.64C52.8331 7.55467 52.8971 7.46933 52.9398 7.384C53.0038 7.27733 53.0464 7.20267 53.0677 7.16C53.0677 7.07467 53.5904 6.82933 54.6358 6.424C55.7024 5.99733 56.5238 5.69867 57.0998 5.528H59.0518C59.6491 5.61333 60.2358 5.784 60.8118 6.04C61.3878 6.296 61.8678 6.616 62.2518 7C62.9131 7.61867 63.5104 8.52533 64.0438 9.72C64.0438 9.80533 64.0651 9.99733 64.1078 10.296C64.1718 10.5733 64.2038 10.8187 64.2038 11.032C64.2038 12.0347 63.8411 13.1867 63.1158 14.488C62.4118 15.7893 61.4411 16.9413 60.2038 17.944C59.4998 18.4987 58.7531 18.9253 57.9638 19.224C57.1958 19.5227 56.4598 19.672 55.7558 19.672C55.4358 19.672 55.1371 19.64 54.8598 19.576C54.4758 19.4267 54.1984 19.2133 54.0278 18.936C53.8784 18.6373 53.8038 18.328 53.8038 18.008C53.8038 17.7307 53.8464 17.5493 53.9318 17.464C54.0171 17.4427 54.2518 17.432 54.6358 17.432C55.0198 17.432 55.5851 17.2933 56.3318 17.016C56.8864 16.824 57.3344 16.6213 57.6758 16.408C58.6784 15.768 59.5638 14.8293 60.3318 13.592C60.7584 12.9093 60.9718 11.8853 60.9718 10.52C61.0144 10.3067 61.0358 10.1467 61.0358 10.04C61.0358 9.61333 60.8438 9.26133 60.4598 8.984C60.0971 8.68533 59.5744 8.504 58.8918 8.44C58.7851 8.41867 58.6251 8.408 58.4118 8.408C58.0064 8.408 57.5798 8.46133 57.1318 8.568C56.6838 8.67467 56.3638 8.792 56.1718 8.92C56.1078 8.92 56.0544 8.99467 56.0118 9.144C55.9691 9.29333 55.9158 9.432 55.8518 9.56C55.8518 9.73067 55.7771 10.0507 55.6278 10.52C55.4998 10.9893 55.3611 11.4267 55.2118 11.832L54.7958 13.048C54.5184 13.752 54.3264 14.3067 54.2198 14.712C54.1558 14.9893 54.0704 15.288 53.9638 15.608C53.8571 15.9067 53.7824 16.0987 53.7398 16.184C53.7398 16.2267 53.6758 16.4187 53.5478 16.76C53.4198 17.1013 53.3238 17.3893 53.2598 17.624C53.0678 18.6267 52.8011 19.544 52.4598 20.376C51.9691 21.976 51.7238 23.096 51.7238 23.736C51.7238 23.9707 51.7558 24.1413 51.8198 24.248C52.1824 24.2693 52.4384 24.312 52.5878 24.376C52.7584 24.4187 52.8438 24.5147 52.8438 24.664C52.8438 24.92 52.5024 25.4747 51.8198 26.328C51.6278 26.8187 51.4251 27.1707 51.2118 27.384C50.9984 27.5973 50.8171 27.7147 50.6678 27.736C50.5184 27.7787 50.2944 27.8 49.9958 27.8ZM67.3535 13.688C67.2895 13.752 67.2255 13.784 67.1615 13.784C67.0762 13.784 66.9375 13.72 66.7455 13.592C66.5322 13.5707 66.2442 13.3893 65.8815 13.048C65.5402 12.7067 65.3695 12.4827 65.3695 12.376C65.3482 12.12 65.3695 11.7573 65.4335 11.288C65.4975 10.7973 65.6148 10.36 65.7855 9.976C65.9775 9.592 66.2228 9.38933 66.5215 9.368C66.6708 9.38933 66.8735 9.44267 67.1295 9.528C67.3855 9.592 67.6735 9.688 67.9935 9.816C68.3988 10.6267 68.6015 11.32 68.6015 11.896C68.6015 12.7493 68.1855 13.3467 67.3535 13.688ZM64.4095 26.968C63.8975 26.968 63.4495 26.7013 63.0655 26.168C62.7028 25.6347 62.4788 24.9733 62.3935 24.184C62.4788 23.3947 62.5428 22.8187 62.5855 22.456C62.8202 21.4107 63.1082 20.184 63.4495 18.776C63.8122 17.3467 64.0255 16.5573 64.0895 16.408C64.1962 16.216 64.3668 16.12 64.6015 16.12C64.8362 16.12 65.0922 16.216 65.3695 16.408C65.6682 16.5787 65.9135 16.824 66.1055 17.144C66.2762 17.3787 66.3615 17.6453 66.3615 17.944C66.3615 18.392 66.1482 19.3307 65.7215 20.76C65.4228 21.8267 65.2308 22.584 65.1455 23.032C65.0602 23.48 65.0282 23.96 65.0495 24.472C64.9642 25.432 64.8788 26.0933 64.7935 26.456C64.7082 26.8187 64.5802 26.9893 64.4095 26.968ZM68.3148 26.456C67.4614 25.8587 67.0028 25.016 66.9388 23.928C66.8534 23.3947 67.1841 22.648 67.9308 21.688C68.6774 20.728 69.6268 19.8213 70.7788 18.968L72.6667 17.784C72.9014 17.656 73.0721 17.56 73.1788 17.496C73.3068 17.4107 73.3708 17.3467 73.3708 17.304C73.3708 17.2613 73.3388 17.1973 73.2748 17.112C73.2108 17.048 72.9548 16.9947 72.5068 16.952C72.4001 16.952 72.1761 16.9307 71.8348 16.888C71.6428 16.9093 71.3974 16.92 71.0988 16.92C70.8214 16.92 70.3308 16.9947 69.6268 17.144C69.1788 17.1653 68.8481 17.1653 68.6348 17.144C68.4428 17.1013 68.2828 17.0053 68.1548 16.856C68.0268 16.6427 67.9308 16.408 67.8668 16.152C67.8028 15.8747 67.8241 15.704 67.9308 15.64C67.9734 15.3627 68.1654 15.1173 68.5068 14.904C68.8481 14.6693 69.3814 14.5093 70.1068 14.424C70.1921 14.4453 70.4268 14.456 70.8108 14.456C70.9814 14.456 71.2588 14.4667 71.6428 14.488C72.0481 14.5093 72.4321 14.5413 72.7948 14.584C73.7761 14.6907 74.4908 14.7973 74.9388 14.904C75.3868 14.9893 75.7174 15.1067 75.9308 15.256C76.1441 15.4053 76.2934 15.6187 76.3788 15.896C76.4641 16.152 76.5068 16.3653 76.5068 16.536C76.5068 17.56 75.5894 18.648 73.7548 19.8C72.9228 20.376 72.3041 20.8453 71.8988 21.208C71.5148 21.5493 71.0881 21.9867 70.6188 22.52L69.9788 23.256C69.7014 23.5333 69.5628 23.7147 69.5628 23.8C69.5628 23.8853 69.6588 23.96 69.8508 24.024C69.9361 24.1307 70.1388 24.184 70.4588 24.184C70.6721 24.184 70.8321 24.1733 70.9388 24.152H71.5788C71.8348 24.152 71.9841 24.1627 72.0268 24.184C72.1548 24.2267 72.2508 24.248 72.3148 24.248C72.4854 24.248 72.7094 24.2053 72.9868 24.12C73.2641 24.0347 73.4774 23.9707 73.6267 23.928C74.7574 23.8427 75.4401 23.7573 75.6748 23.672C75.9521 23.5867 76.2401 23.5547 76.5388 23.576C76.8588 23.576 77.0401 23.576 77.0828 23.576C77.2321 23.7253 77.3068 23.96 77.3068 24.28C77.3068 24.6 77.2214 24.8987 77.0508 25.176C76.9014 25.432 76.6561 25.592 76.3148 25.656C75.8028 25.848 75.3974 25.9867 75.0988 26.072C74.8214 26.1573 74.6081 26.1893 74.4588 26.168C73.7548 26.36 72.4854 26.456 70.6508 26.456H68.3148ZM76.8965 26.744C76.1072 26.3813 75.7125 25.9013 75.7125 25.304C75.7125 24.1733 77.0565 22.2747 79.7445 19.608C80.4058 18.9467 80.9605 18.3493 81.4085 17.816C81.8778 17.2613 82.1125 16.92 82.1125 16.792C81.1098 16.7707 80.0538 16.8027 78.9445 16.888C78.2405 16.952 77.7498 16.888 77.4725 16.696C77.2165 16.504 77.0458 16.216 76.9605 15.832C76.8965 15.7253 76.8645 15.6187 76.8645 15.512C76.8645 15.2347 77.0565 14.9787 77.4405 14.744C77.8458 14.5093 78.1872 14.392 78.4645 14.392C78.5498 14.328 78.8485 14.296 79.3605 14.296C79.9792 14.296 80.7045 14.3387 81.5365 14.424C82.3685 14.488 82.9125 14.5627 83.1685 14.648C83.6805 14.776 84.1712 14.9893 84.6405 15.288C85.1312 15.5867 85.3765 15.9387 85.3765 16.344C85.3765 16.6 85.3018 16.9413 85.1525 17.368C85.0032 17.7733 84.8218 18.0827 84.6085 18.296C84.6085 18.296 83.9898 18.9147 82.7525 20.152C81.4938 21.4107 80.8645 22.04 80.8645 22.04C80.7578 22.1467 80.5445 22.3707 80.2245 22.712C79.9045 23.032 79.6485 23.32 79.4565 23.576C79.2645 23.832 79.1578 24.0453 79.1365 24.216C79.2005 24.3227 79.2858 24.376 79.3925 24.376C79.5205 24.376 79.7872 24.3333 80.1925 24.248C80.3418 24.2267 80.5552 24.1947 80.8325 24.152C81.1098 24.088 81.4938 24.0133 81.9845 23.928C82.5818 23.736 83.1472 23.64 83.6805 23.64C84.0858 23.64 84.3845 23.7147 84.5765 23.864C84.7898 23.992 84.9178 24.152 84.9605 24.344C84.6618 25.4747 84.2138 26.04 83.6165 26.04L81.2805 26.616C79.8938 26.9787 78.9125 27.16 78.3365 27.16C77.8672 27.16 77.3872 27.0213 76.8965 26.744ZM87.7503 26.712C87.0463 26.4347 86.5236 26.008 86.1823 25.432C85.8623 24.8347 85.7023 24.0667 85.7023 23.128C85.7023 22.9147 85.7236 22.5307 85.7663 21.976C85.7876 21.8053 85.7983 21.6027 85.7983 21.368C85.7983 21.0053 85.7556 20.7387 85.6703 20.568C85.5849 20.376 85.4356 20.184 85.2223 19.992C85.1583 19.928 85.0089 19.7893 84.7743 19.576C84.5396 19.3627 84.4329 19.2027 84.4543 19.096V19C84.4543 18.8507 84.4863 18.6907 84.5503 18.52C84.6356 18.328 84.7103 18.2107 84.7743 18.168C84.8383 18.1467 84.9663 18.0827 85.1583 17.976C85.3503 17.8693 85.4996 17.8373 85.6063 17.88C85.6916 17.88 85.8196 17.9333 85.9903 18.04C86.1823 18.1467 86.2783 18.2427 86.2783 18.328C86.4063 18.584 86.7369 18.168 87.2703 17.08C87.5689 16.632 87.9743 16.1947 88.4863 15.768C88.9983 15.32 89.4676 14.9787 89.8943 14.744C90.0436 14.68 90.3743 14.5947 90.8863 14.488C91.4196 14.36 91.8356 14.296 92.1343 14.296C92.4756 14.296 92.8703 14.4347 93.3183 14.712C93.7876 14.9893 94.1716 15.288 94.4703 15.608C94.9183 15.928 95.1423 16.536 95.1423 17.432C95.1423 17.9653 95.0569 18.424 94.8863 18.808C94.8009 19.128 94.3743 19.6187 93.6063 20.28C92.8596 20.92 92.2516 21.336 91.7823 21.528C91.3129 21.6347 90.7903 21.688 90.2143 21.688C89.6383 21.688 89.2436 21.6347 89.0303 21.528C88.8809 21.4427 88.7529 21.4853 88.6463 21.656C88.5609 21.8053 88.4863 22.1573 88.4223 22.712L88.3903 23.032C88.3903 23.2667 88.4436 23.4907 88.5503 23.704C88.6996 23.96 88.8383 24.1413 88.9663 24.248C89.0943 24.3547 89.2863 24.408 89.5423 24.408L89.8303 24.376C90.0649 24.3547 90.3103 24.2373 90.5663 24.024C90.8436 23.8107 91.1636 23.5227 91.5263 23.16C91.9103 22.7973 92.1343 22.584 92.1983 22.52C92.3049 22.3067 92.5929 22.2 93.0623 22.2C93.2543 22.2 93.4996 22.232 93.7983 22.296C94.0116 22.4667 94.1183 22.68 94.1183 22.936C94.1183 23.2987 93.9476 23.7893 93.6063 24.408C93.4996 24.6213 93.1689 24.984 92.6143 25.496C92.0809 26.008 91.6543 26.36 91.3343 26.552C90.7583 26.872 90.1183 27.032 89.4143 27.032C88.8809 27.032 88.3263 26.9253 87.7503 26.712ZM90.1183 19.512C90.6303 19.384 91.0249 19.2347 91.3023 19.064C91.6009 18.872 91.9423 18.5093 92.3263 17.976C92.4969 17.464 92.5289 17.1547 92.4223 17.048C92.2943 16.92 92.1449 16.856 91.9743 16.856C91.7609 16.856 91.5049 16.9733 91.2063 17.208C90.9929 17.272 90.6943 17.4747 90.3103 17.816C89.9476 18.136 89.6383 18.456 89.3823 18.776C89.1263 19.0747 89.0516 19.256 89.1583 19.32C89.1156 19.384 89.2223 19.4373 89.4783 19.48C89.7343 19.5013 89.9476 19.512 90.1183 19.512ZM95.9018 26.136C95.6031 25.9013 95.3684 25.6773 95.1978 25.464C95.0271 25.2507 94.9738 24.952 95.0378 24.568C95.1018 23.8427 95.2618 23 95.5178 22.04L95.6778 21.4C95.7418 20.824 96.0724 19.6933 96.6698 18.008C97.2884 16.3013 97.8004 15.1493 98.2058 14.552C98.4191 14.3387 98.7818 14.232 99.2938 14.232C99.7204 14.232 100.019 14.3173 100.19 14.488C100.36 14.616 100.446 14.8293 100.446 15.128C100.446 15.6187 100.136 16.4827 99.5178 17.72L99.1978 18.392C99.0484 18.6693 98.9204 18.9253 98.8138 19.16C98.7284 19.3947 98.7391 19.5013 98.8458 19.48C99.0804 19.0747 99.6458 18.52 100.542 17.816C101.459 17.112 102.088 16.6747 102.43 16.504C102.579 16.4187 102.771 16.3333 103.006 16.248C103.24 16.1627 103.4 16.0987 103.486 16.056C103.87 15.864 104.307 15.768 104.798 15.768C105.139 15.768 105.427 15.8213 105.662 15.928C105.918 16.0133 106.088 16.152 106.174 16.344C106.195 16.4933 106.248 16.6107 106.334 16.696C106.44 16.7813 106.515 16.8347 106.558 16.856C106.622 16.856 106.664 16.888 106.686 16.952C106.707 16.9947 106.718 17.0267 106.718 17.048C106.718 17.2187 106.568 17.4427 106.27 17.72C105.971 17.976 105.662 18.1147 105.342 18.136C105.107 18.1573 104.862 18.2107 104.606 18.296C104.35 18.3813 104.094 18.488 103.838 18.616L103.006 19.096C102.28 19.4587 101.662 19.8213 101.15 20.184C100.659 20.5253 100.158 20.9733 99.6458 21.528C99.5391 21.6347 99.3791 21.784 99.1658 21.976C98.9738 22.168 98.8031 22.392 98.6538 22.648C98.5044 22.7973 98.3444 23.192 98.1738 23.832C98.0244 24.4507 97.9498 24.8347 97.9498 24.984C97.9284 25.048 97.8858 25.176 97.8218 25.368C97.7578 25.56 97.6618 25.7307 97.5338 25.88C97.3418 26.1147 97.1818 26.2853 97.0538 26.392C96.9258 26.4987 96.7871 26.552 96.6378 26.552C96.4244 26.552 96.1791 26.4133 95.9018 26.136ZM109.533 13.624C109.32 13.4747 109.149 13.2827 109.021 13.048C108.893 12.8133 108.819 12.5893 108.797 12.376C108.776 12.1627 108.797 12.0347 108.861 11.992C108.989 11.8427 109.117 11.64 109.245 11.384C109.373 11.128 109.469 10.9467 109.533 10.84C109.704 10.456 109.843 10.1787 109.949 10.008C110.099 9.70933 110.237 9.54933 110.365 9.528C110.536 9.44267 110.675 9.4 110.781 9.4C111.059 9.4 111.357 9.496 111.677 9.688C112.019 9.88 112.275 10.104 112.445 10.36C112.595 10.7013 112.669 11 112.669 11.256C112.669 11.768 112.424 12.3333 111.933 12.952C111.72 13.2293 111.464 13.4427 111.165 13.592C110.867 13.7413 110.568 13.816 110.269 13.816C109.971 13.816 109.725 13.752 109.533 13.624ZM106.077 26.456C105.779 26.1573 105.629 25.624 105.629 24.856C105.629 24.4507 105.683 24.1413 105.789 23.928C105.789 23.8213 105.811 23.6933 105.853 23.544C105.896 23.3947 105.917 23.2987 105.917 23.256C105.896 23.128 105.981 22.776 106.173 22.2C106.429 21.624 106.749 20.7387 107.133 19.544C107.539 18.3493 107.816 17.496 107.965 16.984C107.965 16.8773 108.008 16.792 108.093 16.728C108.179 16.6427 108.307 16.5893 108.477 16.568C108.712 16.4827 109.011 16.5893 109.373 16.888C109.736 17.1653 110.035 17.4853 110.269 17.848C110.397 17.976 110.461 18.1467 110.461 18.36C110.461 18.68 110.323 19.128 110.045 19.704C109.939 19.9387 109.832 20.2267 109.725 20.568C109.64 20.9093 109.565 21.2293 109.501 21.528C109.245 22.104 109.043 22.6373 108.893 23.128C108.829 23.4053 108.787 23.6187 108.765 23.768C108.616 24.5573 108.477 25.0693 108.349 25.304C108.221 25.8373 108.04 26.2427 107.805 26.52C107.571 26.776 107.304 26.904 107.005 26.904C106.643 26.904 106.333 26.7547 106.077 26.456ZM114.111 26.552C113.897 26.5947 113.705 26.616 113.535 26.616C113.257 26.616 113.001 26.5947 112.766 26.552C112.532 26.488 112.415 26.4133 112.415 26.328C112.415 26.264 112.404 26.2213 112.383 26.2C112.361 26.1787 112.319 26.168 112.255 26.168C112.191 26.104 112.041 25.9973 111.807 25.848C111.593 25.6773 111.412 25.56 111.263 25.496C111.007 25.1333 110.879 24.7387 110.879 24.312C110.879 23.9067 111.007 23.256 111.263 22.36C111.284 21.528 111.583 20.6 112.159 19.576C112.756 18.5307 113.471 17.5707 114.303 16.696C115.135 15.8 115.881 15.16 116.543 14.776C116.863 14.456 117.311 14.296 117.887 14.296C118.335 14.296 118.729 14.392 119.071 14.584C119.348 14.7547 119.689 15.1173 120.095 15.672C120.521 16.2267 120.841 16.728 121.055 17.176C121.097 17.3253 121.151 17.528 121.215 17.784C121.3 18.04 121.343 18.3493 121.343 18.712L121.279 19.608C121.023 20.4827 120.895 21.272 120.895 21.976C120.852 22.2747 120.873 22.52 120.959 22.712C121.044 22.8827 121.161 22.968 121.311 22.968C121.417 22.968 121.535 22.936 121.663 22.872C121.791 22.808 121.94 22.776 122.111 22.776C122.388 22.776 122.623 22.8613 122.815 23.032C123.007 23.2027 123.103 23.416 123.103 23.672C123.103 23.8853 123.049 24.088 122.943 24.28C122.751 24.7067 122.388 25.0907 121.855 25.432C121.343 25.7733 120.863 25.944 120.415 25.944C120.052 25.944 119.7 25.752 119.359 25.368C119.039 24.984 118.783 24.4827 118.591 23.864L118.399 23.128L117.247 24.184L116.51 24.92C116.169 25.2613 115.977 25.464 115.935 25.528C115.828 25.6987 115.636 25.8587 115.359 26.008C115.103 26.1573 114.687 26.3387 114.111 26.552ZM114.975 23.48C115.359 23.2667 115.679 23 115.935 22.68C116.212 22.36 116.553 21.912 116.959 21.336C117.044 21.208 117.129 21.08 117.215 20.952C117.3 20.8027 117.407 20.6533 117.535 20.504C117.897 20.0133 118.153 19.6187 118.303 19.32C118.473 19.0213 118.601 18.7013 118.687 18.36C118.601 18.0827 118.473 17.8267 118.303 17.592C118.153 17.336 118.015 17.1973 117.887 17.176C117.289 17.176 116.479 17.88 115.455 19.288C115.348 19.4373 115.177 19.704 114.943 20.088C114.729 20.472 114.591 20.728 114.527 20.856C114.42 21.0053 114.271 21.368 114.079 21.944C113.908 22.4987 113.823 22.8613 113.823 23.032C113.823 23.5013 113.961 23.736 114.239 23.736C114.452 23.736 114.697 23.6507 114.975 23.48Z" fill="#E4032F"/>
</svg>
